<svg width="1010" height="259" viewBox="0 0 1010 259" fill="none" xmlns="http://www.w3.org/2000/svg">
<path d="M430.168 21.8226V206.503H407.949V36.6353L338.903 206.503L262.69 36.3962V206.503H259.345V21.8226H285.147L348.46 174.01L410.099 21.8226H430.168Z" fill="white"/>
<path d="M568.735 72.7113L521.669 199.813C521.191 200.769 520.713 201.963 520.236 203.158L519.041 206.264C515.697 214.626 512.352 222.749 508.051 230.633C503.273 238.995 497.062 247.835 488.222 252.374C477.948 257.869 465.525 254.046 455.49 249.268L464.808 230.872C472.454 246.64 483.443 247.357 489.655 244.968C504.706 239.234 509.246 222.51 515.697 206.264L455.49 72.9505H475.559L524.058 185L558.223 92.5409L565.391 72.7113H568.735Z" fill="white"/>
<path d="M607.914 113.565C607.914 154.659 622.727 203.158 668.121 203.158C713.036 202.919 727.609 154.659 727.609 114.044C727.848 72.9504 713.036 23.9731 667.642 23.9731C622.727 24.2117 607.914 72.7113 607.914 113.565ZM585.695 113.565C585.695 62.4378 622.488 20.6284 667.881 20.6284C713.275 20.6284 750.068 62.4378 750.068 113.565C750.068 164.932 713.275 206.502 667.881 206.502C622.488 206.502 585.695 164.932 585.695 113.565Z" fill="white"/>
<path d="M872.867 139.846C872.867 115.715 869.522 76.0556 840.614 76.0556C821.262 76.0556 807.883 89.4348 800.476 103.531C794.982 114.043 795.22 123.361 795.459 139.846C795.699 158.003 795.699 169.471 803.105 180.939C810.033 191.69 821.501 203.636 840.614 203.636C869.522 203.636 872.867 163.976 872.867 139.846ZM892.936 139.846C892.936 176.877 869.522 206.98 840.614 206.98C821.262 206.98 804.538 193.601 795.459 174.01V258.108H775.39V72.7115H795.459V105.681C804.538 85.8515 821.262 72.7115 840.614 72.7115C869.522 72.7115 892.936 102.814 892.936 139.846Z" fill="white"/>
<path d="M918.497 161.826C919.213 188.823 944.06 202.68 962.218 202.68C980.136 202.68 999.01 194.318 999.01 173.771C999.01 136.979 917.064 153.942 917.064 104.965C917.064 83.4624 939.282 68.8888 958.873 68.8888C974.641 68.8888 985.631 74.8616 996.143 85.1345L990.41 93.4967C990.41 93.4967 986.587 72.233 958.156 72.233C941.432 72.233 926.381 82.9841 926.381 100.664C926.381 135.068 1010 115.237 1010 164.932C1010 191.212 986.826 206.502 961.74 206.502C936.654 206.502 910.852 188.823 910.135 161.826H918.497Z" fill="white"/>
<path d="M113.792 7.62939e-05C50.9465 7.62939e-05 0 50.9466 0 113.793C0 176.638 50.9465 227.585 113.792 227.585C176.638 227.585 227.585 176.638 227.585 113.793C227.585 50.9466 176.638 7.62939e-05 113.792 7.62939e-05ZM113.792 5.61946C142.687 5.61946 169.851 16.8713 190.282 37.3028C210.714 57.7336 221.965 84.8983 221.965 113.793C221.965 142.687 210.714 169.851 190.282 190.282C169.851 210.714 142.687 221.966 113.792 221.966C84.8982 221.966 57.7335 210.714 37.3027 190.282C16.8713 169.851 5.61938 142.687 5.61938 113.793C5.61938 84.8983 16.8713 57.7336 37.3027 37.3028C57.7335 16.8713 84.8982 5.61946 113.792 5.61946Z" fill="white"/>
<path d="M160.225 62.966V164.619H147.996V71.119L109.991 164.619L68.0406 70.9879V164.619H66.2V62.966H80.402L115.251 146.734L149.179 62.966H160.225Z" fill="white"/>
</svg>
