<svg width="94" height="24" viewBox="0 0 94 24" fill="none" xmlns="http://www.w3.org/2000/svg">
<path d="M39.9991 2.02917V19.2015H37.9331V3.40651L31.5129 19.2015L24.4262 3.38428V19.2015H24.1152V2.02917H26.5144L32.4015 16.1802L38.133 2.02917H39.9991Z" fill="#0C0C0C"/>
<path d="M52.8836 6.76102L48.5072 18.5795C48.4627 18.6684 48.4183 18.7794 48.3739 18.8905L48.2628 19.1793C47.9518 19.9568 47.6408 20.7122 47.2409 21.4452C46.7966 22.2228 46.219 23.0448 45.397 23.4668C44.4418 23.9778 43.2866 23.6223 42.3535 23.178L43.22 21.4675C43.9309 22.9336 44.9527 23.0003 45.5303 22.7782C46.9299 22.245 47.352 20.6899 47.9518 19.1793L42.3535 6.78326H44.2196L48.7293 17.2021L51.9061 8.60486L52.5726 6.76102H52.8836Z" fill="#0C0C0C"/>
<path d="M56.5265 10.5598C56.5265 14.3808 57.9038 18.8906 62.1248 18.8906C66.3012 18.8683 67.6563 14.3808 67.6563 10.6043C67.6785 6.78326 66.3012 2.22914 62.0803 2.22914C57.9038 2.25132 56.5265 6.76102 56.5265 10.5598ZM54.4604 10.5598C54.4604 5.80575 57.8816 1.91813 62.1025 1.91813C66.3234 1.91813 69.7445 5.80575 69.7445 10.5598C69.7445 15.3361 66.3234 19.2015 62.1025 19.2015C57.8816 19.2015 54.4604 15.3361 54.4604 10.5598Z" fill="#0C0C0C"/>
<path d="M81.1629 13.0035C81.1629 10.7597 80.8519 7.072 78.1639 7.072C76.3645 7.072 75.1204 8.31605 74.4317 9.62681C73.9208 10.6043 73.943 11.4706 73.9653 13.0035C73.9875 14.6918 73.9875 15.7582 74.6762 16.8245C75.3204 17.8242 76.3867 18.9349 78.1639 18.9349C80.8519 18.9349 81.1629 15.2472 81.1629 13.0035ZM83.029 13.0035C83.029 16.4468 80.8519 19.2459 78.1639 19.2459C76.3645 19.2459 74.8094 18.0019 73.9653 16.1802V24H72.0991V6.76105H73.9653V9.8267C74.8094 7.98286 76.3645 6.76105 78.1639 6.76105C80.8519 6.76105 83.029 9.5601 83.029 13.0035Z" fill="#0C0C0C"/>
<path d="M85.4059 15.0473C85.4726 17.5576 87.783 18.8461 89.4713 18.8461C91.1374 18.8461 92.8925 18.0685 92.8925 16.158C92.8925 12.7369 85.2727 14.3142 85.2727 9.76008C85.2727 7.76071 87.3386 6.4056 89.1603 6.4056C90.6265 6.4056 91.6483 6.96097 92.6259 7.91619L92.0927 8.69375C92.0927 8.69375 91.7373 6.71655 89.0937 6.71655C87.5386 6.71655 86.139 7.71624 86.139 9.36018C86.139 12.5592 93.9143 10.7153 93.9143 15.3361C93.9143 17.7797 91.7595 19.2015 89.4269 19.2015C87.0943 19.2015 84.6951 17.5576 84.6284 15.0473H85.4059Z" fill="#0C0C0C"/>
<path d="M10.5809 2.09808e-05C4.73723 2.09808e-05 0 4.73725 0 10.5809C0 16.4246 4.73723 21.1618 10.5809 21.1618C16.4246 21.1618 21.1618 16.4246 21.1618 10.5809C21.1618 4.73725 16.4246 2.09808e-05 10.5809 2.09808e-05ZM10.5809 0.522535C13.2676 0.522535 15.7935 1.56878 17.6933 3.46859C19.5931 5.36833 20.6393 7.89423 20.6393 10.5809C20.6393 13.2676 19.5931 15.7935 17.6933 17.6933C15.7935 19.5931 13.2676 20.6393 10.5809 20.6393C7.89421 20.6393 5.36831 19.5931 3.46857 17.6933C1.56876 15.7935 0.522515 13.2676 0.522515 10.5809C0.522515 7.89423 1.56876 5.36833 3.46857 3.46859C5.36831 1.56878 7.89421 0.522535 10.5809 0.522535Z" fill="#0C0C0C"/>
<path d="M14.8986 5.85488V15.307H13.7615V6.61299L10.2276 15.307L6.32691 6.6008V15.307H6.15576V5.85488H7.47633L10.7167 13.644L13.8715 5.85488H14.8986Z" fill="#0C0C0C"/>
</svg>
