<svg width="14" height="14" viewBox="0 0 14 14" fill="none" xmlns="http://www.w3.org/2000/svg">
<path fill-rule="evenodd" clip-rule="evenodd" d="M1.2307 1.48446C1.33043 1.28941 1.53102 1.16669 1.75008 1.16669H4.66675C4.85406 1.16669 5.02998 1.25664 5.13964 1.40848L7.91871 5.25643L11.8376 1.33754C12.0654 1.10974 12.4348 1.10974 12.6626 1.33754C12.8903 1.56535 12.8903 1.93469 12.6626 2.1625L8.61061 6.21445L12.723 11.9085C12.8513 12.086 12.8692 12.3205 12.7695 12.5156C12.6697 12.7106 12.4691 12.8334 12.2501 12.8334H9.33341C9.14611 12.8334 8.97017 12.7434 8.86051 12.5916L6.08145 8.7436L2.16256 12.6625C1.93476 12.8903 1.56541 12.8903 1.33761 12.6625C1.1098 12.4347 1.1098 12.0653 1.33761 11.8375L5.38955 7.7856L1.27718 2.09156C1.14893 1.91397 1.13098 1.6795 1.2307 1.48446Z" fill="white"/>
</svg>
